<svg xmlns="http://www.w3.org/2000/svg" version="1.1" xmlns:xlink="http://www.w3.org/1999/xlink" xmlns:svgjs="http://svgjs.com/svgjs" width="3840" height="2160" preserveAspectRatio="none" viewBox="0 0 3840 2160"><g mask="url(&quot;#SvgjsMask1229&quot;)" fill="none"><rect width="3840" height="2160" x="0" y="0" fill="url(#SvgjsLinearGradient1230)"></rect><path d="M32.16 1114.7a97.88 97.88 0 1 0 34.42 192.71z" fill="#d3b714"></path><path d="M2302.24 426.09L2436.29 426.09L2436.29 509.08L2302.24 509.08z" fill="#d3b714"></path><path d="M3818.37 985.87a133.29 133.29 0 1 0-234.75 126.33z" stroke="#e73635"></path><path d="M7.21 70.34 a155.35 155.35 0 1 0 310.7 0 a155.35 155.35 0 1 0 -310.7 0z" fill="#037b0b"></path><path d="M1753.43 447.4L1857.21 447.4L1857.21 559.7L1753.43 559.7z" fill="#d3b714"></path><path d="M3068.93 2110.52L3070.68 2110.52L3070.68 2112.27L3068.93 2112.27z" fill="#d3b714"></path><path d="M591.92 1491.86L627.71 1491.86L627.71 1527.65L591.92 1527.65z" stroke="#d3b714"></path><path d="M68.69 295.51L203.96 295.51L203.96 369.08L68.69 369.08z" stroke="#e73635"></path><path d="M121.37 1435.31a98.22 98.22 0 1 0 142.5 135.2z" fill="#e73635"></path><path d="M1607.02 537.15a200.41 200.41 0 1 0-211.38-340.56z" fill="#e73635"></path><path d="M590.76 952.01a2.95 2.95 0 1 0 4.94 3.24z" fill="#e73635"></path><path d="M3002.88 283.8 a130.95 130.95 0 1 0 261.9 0 a130.95 130.95 0 1 0 -261.9 0z" stroke="#e73635"></path><path d="M1950.68 56.06L2004.13 56.06L2004.13 109.51L1950.68 109.51z" fill="#037b0b"></path><path d="M1974.11 398.49L2188.4 398.49L2188.4 525.44L1974.11 525.44z" fill="#e73635"></path><path d="M812.02 251.49 a119.55 119.55 0 1 0 239.1 0 a119.55 119.55 0 1 0 -239.1 0z" fill="#037b0b"></path><path d="M1072.21 2042.72L1079.37 2042.72L1079.37 2221.19L1072.21 2221.19z" fill="#e73635"></path><path d="M2105.89 823.96L2224.37 823.96L2224.37 942.44L2105.89 942.44z" stroke="#e73635"></path><path d="M825.11 616.1L938.95 616.1L938.95 729.94L825.11 729.94z" fill="#d3b714"></path><path d="M50.31 1406.47 a83.9 83.9 0 1 0 167.8 0 a83.9 83.9 0 1 0 -167.8 0z" stroke="#037b0b"></path><path d="M2082.78 873.57a2.63 2.63 0 1 0-5.19 0.83z" stroke="#d3b714"></path><path d="M3788.22 2025.18 a26.37 26.37 0 1 0 52.74 0 a26.37 26.37 0 1 0 -52.74 0z" stroke="#e73635"></path><path d="M2996.43 1585.87a40.57 40.57 0 1 0 76.46 27.16z" stroke="#e73635"></path><path d="M2786 799.79L2857.61 799.79L2857.61 838.25L2786 838.25z" fill="#e73635"></path></g><defs><mask id="SvgjsMask1229"><rect width="3840" height="2160" fill="#ffffff"></rect></mask><linearGradient x1="10.94%" y1="-19.44%" x2="89.06%" y2="119.44%" gradientUnits="userSpaceOnUse" id="SvgjsLinearGradient1230"><stop stop-color="#0e2a47" offset="0"></stop><stop stop-color="rgba(25, 200, 116, 1)" offset="1"></stop></linearGradient></defs></svg>