<svg xmlns="http://www.w3.org/2000/svg" version="1.1" xmlns:xlink="http://www.w3.org/1999/xlink" xmlns:svgjs="http://svgjs.com/svgjs" width="1920" height="1080" preserveAspectRatio="none" viewBox="0 0 1920 1080"><g mask="url(&quot;#SvgjsMask1056&quot;)" fill="none"><rect width="1920" height="1080" x="0" y="0" fill="url(#SvgjsLinearGradient1057)"></rect><path d="M1288 240L1287 717" stroke-width="8" stroke="url(#SvgjsLinearGradient1058)" stroke-linecap="round" class="Up"></path><path d="M798 1031L797 1416" stroke-width="10" stroke="url(#SvgjsLinearGradient1058)" stroke-linecap="round" class="Up"></path><path d="M1663 770L1662 256" stroke-width="8" stroke="url(#SvgjsLinearGradient1059)" stroke-linecap="round" class="Down"></path><path d="M636 366L635 -152" stroke-width="8" stroke="url(#SvgjsLinearGradient1059)" stroke-linecap="round" class="Down"></path><path d="M1428 802L1427 1542" stroke-width="10" stroke="url(#SvgjsLinearGradient1058)" stroke-linecap="round" class="Up"></path><path d="M663 836L662 1569" stroke-width="6" stroke="url(#SvgjsLinearGradient1059)" stroke-linecap="round" class="Down"></path><path d="M17 677L16 130" stroke-width="6" stroke="url(#SvgjsLinearGradient1059)" stroke-linecap="round" class="Down"></path><path d="M221 594L220 7" stroke-width="10" stroke="url(#SvgjsLinearGradient1058)" stroke-linecap="round" class="Up"></path><path d="M422 1063L421 300" stroke-width="8" stroke="url(#SvgjsLinearGradient1058)" stroke-linecap="round" class="Up"></path><path d="M1044 1L1043 -685" stroke-width="8" stroke="url(#SvgjsLinearGradient1058)" stroke-linecap="round" class="Up"></path><path d="M404 829L403 287" stroke-width="10" stroke="url(#SvgjsLinearGradient1058)" stroke-linecap="round" class="Up"></path><path d="M289 219L288 -395" stroke-width="6" stroke="url(#SvgjsLinearGradient1059)" stroke-linecap="round" class="Down"></path><path d="M601 741L600 360" stroke-width="6" stroke="url(#SvgjsLinearGradient1058)" stroke-linecap="round" class="Up"></path><path d="M1701 708L1700 51" stroke-width="10" stroke="url(#SvgjsLinearGradient1058)" stroke-linecap="round" class="Up"></path><path d="M272 440L271 42" stroke-width="6" stroke="url(#SvgjsLinearGradient1059)" stroke-linecap="round" class="Down"></path><path d="M1155 49L1154 -481" stroke-width="10" stroke="url(#SvgjsLinearGradient1058)" stroke-linecap="round" class="Up"></path><path d="M1092 895L1091 1394" stroke-width="8" stroke="url(#SvgjsLinearGradient1059)" stroke-linecap="round" class="Down"></path><path d="M877 400L876 -268" stroke-width="8" stroke="url(#SvgjsLinearGradient1059)" stroke-linecap="round" class="Down"></path><path d="M375 487L374 -109" stroke-width="6" stroke="url(#SvgjsLinearGradient1058)" stroke-linecap="round" class="Up"></path><path d="M789 86L788 871" stroke-width="10" stroke="url(#SvgjsLinearGradient1059)" stroke-linecap="round" class="Down"></path><path d="M777 502L776 -40" stroke-width="10" stroke="url(#SvgjsLinearGradient1059)" stroke-linecap="round" class="Down"></path><path d="M1547 858L1546 121" stroke-width="6" stroke="url(#SvgjsLinearGradient1059)" stroke-linecap="round" class="Down"></path><path d="M642 732L641 1409" stroke-width="6" stroke="url(#SvgjsLinearGradient1059)" stroke-linecap="round" class="Down"></path><path d="M560 1051L559 710" stroke-width="8" stroke="url(#SvgjsLinearGradient1058)" stroke-linecap="round" class="Up"></path><path d="M1478 1010L1477 671" stroke-width="10" stroke="url(#SvgjsLinearGradient1059)" stroke-linecap="round" class="Down"></path><path d="M83 827L82 1378" stroke-width="10" stroke="url(#SvgjsLinearGradient1058)" stroke-linecap="round" class="Up"></path><path d="M878 771L877 1325" stroke-width="6" stroke="url(#SvgjsLinearGradient1058)" stroke-linecap="round" class="Up"></path><path d="M1139 202L1138 -237" stroke-width="10" stroke="url(#SvgjsLinearGradient1058)" stroke-linecap="round" class="Up"></path><path d="M1774 744L1773 -38" stroke-width="6" stroke="url(#SvgjsLinearGradient1059)" stroke-linecap="round" class="Down"></path><path d="M1317 1070L1316 401" stroke-width="8" stroke="url(#SvgjsLinearGradient1058)" stroke-linecap="round" class="Up"></path><path d="M1310 571L1309 1294" stroke-width="10" stroke="url(#SvgjsLinearGradient1058)" stroke-linecap="round" class="Up"></path><path d="M127 585L126 1118" stroke-width="6" stroke="url(#SvgjsLinearGradient1059)" stroke-linecap="round" class="Down"></path><path d="M1381 897L1380 456" stroke-width="6" stroke="url(#SvgjsLinearGradient1059)" stroke-linecap="round" class="Down"></path><path d="M578 238L577 774" stroke-width="10" stroke="url(#SvgjsLinearGradient1058)" stroke-linecap="round" class="Up"></path><path d="M612 152L611 504" stroke-width="10" stroke="url(#SvgjsLinearGradient1058)" stroke-linecap="round" class="Up"></path><path d="M854 548L853 -44" stroke-width="6" stroke="url(#SvgjsLinearGradient1059)" stroke-linecap="round" class="Down"></path><path d="M1093 720L1092 43" stroke-width="6" stroke="url(#SvgjsLinearGradient1058)" stroke-linecap="round" class="Up"></path><path d="M482 781L481 405" stroke-width="10" stroke="url(#SvgjsLinearGradient1059)" stroke-linecap="round" class="Down"></path><path d="M692 123L691 571" stroke-width="6" stroke="url(#SvgjsLinearGradient1058)" stroke-linecap="round" class="Up"></path><path d="M928 258L927 664" stroke-width="8" stroke="url(#SvgjsLinearGradient1059)" stroke-linecap="round" class="Down"></path><path d="M1530 585L1529 989" stroke-width="8" stroke="url(#SvgjsLinearGradient1059)" stroke-linecap="round" class="Down"></path><path d="M1707 43L1706 513" stroke-width="10" stroke="url(#SvgjsLinearGradient1059)" stroke-linecap="round" class="Down"></path><path d="M450 388L449 876" stroke-width="10" stroke="url(#SvgjsLinearGradient1058)" stroke-linecap="round" class="Up"></path><path d="M124 963L123 1580" stroke-width="10" stroke="url(#SvgjsLinearGradient1059)" stroke-linecap="round" class="Down"></path><path d="M1178 733L1177 1466" stroke-width="10" stroke="url(#SvgjsLinearGradient1058)" stroke-linecap="round" class="Up"></path><path d="M1727 1010L1726 636" stroke-width="10" stroke="url(#SvgjsLinearGradient1058)" stroke-linecap="round" class="Up"></path><path d="M677 245L676 -202" stroke-width="10" stroke="url(#SvgjsLinearGradient1059)" stroke-linecap="round" class="Down"></path><path d="M1514 527L1513 1126" stroke-width="8" stroke="url(#SvgjsLinearGradient1059)" stroke-linecap="round" class="Down"></path></g><defs><mask id="SvgjsMask1056"><rect width="1920" height="1080" fill="#ffffff"></rect></mask><linearGradient x1="10.94%" y1="-19.44%" x2="89.06%" y2="119.44%" gradientUnits="userSpaceOnUse" id="SvgjsLinearGradient1057"><stop stop-color="#0e2a47" offset="0"></stop><stop stop-color="#00459e" offset="1"></stop></linearGradient><linearGradient x1="0%" y1="100%" x2="0%" y2="0%" id="SvgjsLinearGradient1058"><stop stop-color="rgba(28, 83, 142, 0)" offset="0"></stop><stop stop-color="#1c538e" offset="1"></stop></linearGradient><linearGradient x1="0%" y1="0%" x2="0%" y2="100%" id="SvgjsLinearGradient1059"><stop stop-color="rgba(28, 83, 142, 0)" offset="0"></stop><stop stop-color="#1c538e" offset="1"></stop></linearGradient></defs></svg>