<svg xmlns="http://www.w3.org/2000/svg" version="1.1" xmlns:xlink="http://www.w3.org/1999/xlink" xmlns:svgjs="http://svgjs.com/svgjs" width="1440" height="560" preserveAspectRatio="none" viewBox="0 0 1440 560"><g mask="url(&quot;#SvgjsMask1010&quot;)" fill="none"><rect width="1440" height="560" x="0" y="0" fill="url(#SvgjsLinearGradient1011)"></rect><path d="M357 135L356 -227" stroke-width="8" stroke="url(#SvgjsLinearGradient1012)" stroke-linecap="round" class="Down"></path><path d="M1344 150L1343 564" stroke-width="10" stroke="url(#SvgjsLinearGradient1012)" stroke-linecap="round" class="Down"></path><path d="M1357 137L1356 -32" stroke-width="6" stroke="url(#SvgjsLinearGradient1012)" stroke-linecap="round" class="Down"></path><path d="M1072 132L1071 323" stroke-width="8" stroke="url(#SvgjsLinearGradient1013)" stroke-linecap="round" class="Up"></path><path d="M1431 312L1430 117" stroke-width="6" stroke="url(#SvgjsLinearGradient1013)" stroke-linecap="round" class="Up"></path><path d="M1165 543L1164 754" stroke-width="8" stroke="url(#SvgjsLinearGradient1013)" stroke-linecap="round" class="Up"></path><path d="M614 226L613 641" stroke-width="8" stroke="url(#SvgjsLinearGradient1012)" stroke-linecap="round" class="Down"></path><path d="M2 29L1 264" stroke-width="10" stroke="url(#SvgjsLinearGradient1013)" stroke-linecap="round" class="Up"></path><path d="M891 50L890 468" stroke-width="10" stroke="url(#SvgjsLinearGradient1012)" stroke-linecap="round" class="Down"></path><path d="M446 368L445 84" stroke-width="6" stroke="url(#SvgjsLinearGradient1013)" stroke-linecap="round" class="Up"></path><path d="M1328 440L1327 152" stroke-width="10" stroke="url(#SvgjsLinearGradient1013)" stroke-linecap="round" class="Up"></path><path d="M953 386L952 680" stroke-width="6" stroke="url(#SvgjsLinearGradient1012)" stroke-linecap="round" class="Down"></path><path d="M725 492L724 692" stroke-width="8" stroke="url(#SvgjsLinearGradient1012)" stroke-linecap="round" class="Down"></path><path d="M1318 54L1317 457" stroke-width="10" stroke="url(#SvgjsLinearGradient1012)" stroke-linecap="round" class="Down"></path><path d="M636 356L635 577" stroke-width="10" stroke="url(#SvgjsLinearGradient1013)" stroke-linecap="round" class="Up"></path><path d="M890 557L889 860" stroke-width="8" stroke="url(#SvgjsLinearGradient1012)" stroke-linecap="round" class="Down"></path><path d="M1164 465L1163 227" stroke-width="6" stroke="url(#SvgjsLinearGradient1013)" stroke-linecap="round" class="Up"></path><path d="M791 41L790 -193" stroke-width="8" stroke="url(#SvgjsLinearGradient1012)" stroke-linecap="round" class="Down"></path><path d="M720 306L719 520" stroke-width="6" stroke="url(#SvgjsLinearGradient1012)" stroke-linecap="round" class="Down"></path><path d="M982 258L981 -19" stroke-width="8" stroke="url(#SvgjsLinearGradient1012)" stroke-linecap="round" class="Down"></path><path d="M138 411L137 166" stroke-width="6" stroke="url(#SvgjsLinearGradient1013)" stroke-linecap="round" class="Up"></path><path d="M1352 243L1351 638" stroke-width="8" stroke="url(#SvgjsLinearGradient1013)" stroke-linecap="round" class="Up"></path><path d="M569 213L568 -2" stroke-width="10" stroke="url(#SvgjsLinearGradient1013)" stroke-linecap="round" class="Up"></path><path d="M1074 275L1073 556" stroke-width="8" stroke="url(#SvgjsLinearGradient1012)" stroke-linecap="round" class="Down"></path><path d="M848 446L847 119" stroke-width="6" stroke="url(#SvgjsLinearGradient1012)" stroke-linecap="round" class="Down"></path><path d="M429 500L428 884" stroke-width="8" stroke="url(#SvgjsLinearGradient1013)" stroke-linecap="round" class="Up"></path><path d="M328 112L327 518" stroke-width="8" stroke="url(#SvgjsLinearGradient1012)" stroke-linecap="round" class="Down"></path><path d="M766 367L765 532" stroke-width="8" stroke="url(#SvgjsLinearGradient1012)" stroke-linecap="round" class="Down"></path><path d="M533 236L532 -116" stroke-width="6" stroke="url(#SvgjsLinearGradient1012)" stroke-linecap="round" class="Down"></path><path d="M372 428L371 21" stroke-width="6" stroke="url(#SvgjsLinearGradient1012)" stroke-linecap="round" class="Down"></path><path d="M907 477L906 640" stroke-width="8" stroke="url(#SvgjsLinearGradient1012)" stroke-linecap="round" class="Down"></path><path d="M1417 238L1416 508" stroke-width="10" stroke="url(#SvgjsLinearGradient1012)" stroke-linecap="round" class="Down"></path><path d="M495 357L494 666" stroke-width="6" stroke="url(#SvgjsLinearGradient1012)" stroke-linecap="round" class="Down"></path><path d="M1164 78L1163 390" stroke-width="10" stroke="url(#SvgjsLinearGradient1012)" stroke-linecap="round" class="Down"></path><path d="M1056 477L1055 79" stroke-width="10" stroke="url(#SvgjsLinearGradient1012)" stroke-linecap="round" class="Down"></path><path d="M375 407L374 585" stroke-width="10" stroke="url(#SvgjsLinearGradient1012)" stroke-linecap="round" class="Down"></path></g><defs><mask id="SvgjsMask1010"><rect width="1440" height="560" fill="#ffffff"></rect></mask><linearGradient x1="15.28%" y1="-39.29%" x2="84.72%" y2="139.29%" gradientUnits="userSpaceOnUse" id="SvgjsLinearGradient1011"><stop stop-color="#0e2a47" offset="0"></stop><stop stop-color="#00459e" offset="1"></stop></linearGradient><linearGradient x1="0%" y1="0%" x2="0%" y2="100%" id="SvgjsLinearGradient1012"><stop stop-color="rgba(28, 83, 142, 0)" offset="0"></stop><stop stop-color="#1c538e" offset="1"></stop></linearGradient><linearGradient x1="0%" y1="100%" x2="0%" y2="0%" id="SvgjsLinearGradient1013"><stop stop-color="rgba(28, 83, 142, 0)" offset="0"></stop><stop stop-color="#1c538e" offset="1"></stop></linearGradient></defs></svg>